HIERARCHY
ROOT Hips
{
  OFFSET 13.6774 106.653 -34.4427
  CHANNELS 6 Xposition Yposition Zposition Zrotation Xrotation Yrotation
  JOINT ToSpine
  {
    OFFSET -2.69724 7.43032 -0.144315
    CHANNELS 3 Zrotation Xrotation Yrotation
    JOINT Spine
    {
      OFFSET -0.0310711 10.7595 1.96963
      CHANNELS 3 Zrotation Xrotation Yrotation
      JOINT Spine1
      {
        OFFSET 19.9056 3.91189 0.764692
        CHANNELS 3 Zrotation Xrotation Yrotation
        JOINT Neck
        {
          OFFSET 25.9749 7.03908 -0.130764
          CHANNELS 3 Zrotation Xrotation Yrotation
          JOINT Head
          {
            OFFSET 9.52751 0.295786 -0.907742
            CHANNELS 3 Zrotation Xrotation Yrotation
            End Site
            {
              OFFSET 16.4037 0.713936 2.7358
            }
          }
        }
        JOINT LeftShoulder
        {
          OFFSET 17.7449 4.33886 11.7777
          CHANNELS 3 Zrotation Xrotation Yrotation
          JOINT LeftArm
          {
            OFFSET 0.911315 1.27913 9.80584
            CHANNELS 3 Zrotation Xrotation Yrotation
            JOINT LeftForeArm
            {
              OFFSET 28.6126 1.18197 -3.53199
              CHANNELS 3 Zrotation Xrotation Yrotation
              JOINT LeftHand
              {
                OFFSET 27.5088 0.0218783 0.327423
                CHANNELS 3 Zrotation Xrotation Yrotation
                End Site
                {
                  OFFSET 18.6038 -0.000155887 0.382096
                }
              }
            }
          }
        }
        JOINT RightShoulder
        {
          OFFSET 17.1009 2.89543 -12.2328
          CHANNELS 3 Zrotation Xrotation Yrotation
          JOINT RightArm
          {
            OFFSET 1.4228 0.178766 -10.211
            CHANNELS 3 Zrotation Xrotation Yrotation
            JOINT RightForeArm
            {
              OFFSET 28.733 1.87905 2.64907
              CHANNELS 3 Zrotation Xrotation Yrotation
              JOINT RightHand
              {
                OFFSET 27.4588 0.290562 -0.101845
                CHANNELS 3 Zrotation Xrotation Yrotation
                End Site
                {
                  OFFSET 17.8396 -0.255518 -0.000602873
                }
              }
            }
          }
        }
      }
    }
  }
  JOINT LeftUpLeg
  {
    OFFSET -5.61296 -2.22332 -10.2353
    CHANNELS 3 Zrotation Xrotation Yrotation
    JOINT LeftLeg
    {
      OFFSET 2.56703 -44.7417 -7.93097
      CHANNELS 3 Zrotation Xrotation Yrotation
      JOINT LeftFoot
      {
        OFFSET 3.16933 -46.5642 -3.96578
        CHANNELS 3 Zrotation Xrotation Yrotation
        JOINT LeftToeBase
        {
          OFFSET 0.346054 -6.02161 12.8035
          CHANNELS 3 Zrotation Xrotation Yrotation
          End Site
          {
            OFFSET 0.134235 -1.35082 5.13018
          }
        }
      }
    }
  }
  JOINT RightUpLeg
  {
    OFFSET -5.7928 -1.72406 10.6446
    CHANNELS 3 Zrotation Xrotation Yrotation
    JOINT RightLeg
    {
      OFFSET -2.57161 -44.7178 -7.85259
      CHANNELS 3 Zrotation Xrotation Yrotation
      JOINT RightFoot
      {
        OFFSET -3.10148 -46.5936 -4.03391
        CHANNELS 3 Zrotation Xrotation Yrotation
        JOINT RightToeBase
        {
          OFFSET -0.0828122 -6.13587 12.8035
          CHANNELS 3 Zrotation Xrotation Yrotation
          End Site
          {
            OFFSET -0.131328 -1.35082 5.13018
          }
        }
      }
    }
  }
}
MOTION
Frames: 10
Frame Time: 0.03333333333333333
0.0000 93.1000 0.0000 -52.8007 -2.4800 170.1323 -71.3241 0.2306 88.3087 147.4479 68.0168 -61.3856 0.9522 29.7870 -6.9313 -163.9200 25.8481 171.7049 -154.3234 63.6493 175.1076 1.6112 -4.7596 -24.3250 -91.9205 49.6721 -57.3336 -4.6387 27.8108 -9.3340 10.0657 -0.9939 -6.8971 0.3832 1.0752 11.9880 -93.1733 -50.9003 113.5453 12.9414 0.6791 101.3630 10.4924 0.3237 4.8944 7.4123 1.5790 97.5175 -95.8242 84.2796 82.1158 3.1299 0.8432 -0.7268 -9.0080 -40.3168 13.2819 -65.0992 3.5779 94.3476 2.9262 41.9107 12.8180 -7.9456 -8.8268 0.6124 -19.2863 18.1850 20.1692 
0.0000 93.1000 0.0000 -52.1403 -4.7183 171.4624 -71.2981 -0.2019 88.2908 140.3691 68.7826 -53.5365 3.8436 28.6226 -10.4570 -161.7650 25.3619 170.0310 -152.2437 63.5346 173.3296 0.9472 -4.3008 -24.7956 -87.0624 48.7487 -67.4393 -3.7839 23.3873 -10.0735 8.6741 -1.4339 -7.0337 0.2346 0.0762 13.5537 -85.6488 -49.5560 114.3855 14.8051 1.9974 103.4630 8.6331 0.9952 5.8191 3.0213 1.5753 101.1557 -36.1670 83.0142 23.7611 3.6187 1.9152 -0.4068 -8.9120 -38.8925 13.5364 -66.2127 2.9168 89.7460 1.8164 44.0768 7.4722 -3.9788 0.1496 -0.6535 -39.4250 43.0686 40.3019 
0.0000 93.1000 0.0000 -53.8576 -4.0508 173.6940 -71.0631 0.3402 88.0495 135.5932 69.1995 -49.5732 8.3177 27.3312 -10.3209 -161.6179 24.1022 169.4981 -151.7878 62.7047 173.8169 1.8244 -2.6413 -28.2151 -69.7861 46.3961 -90.6271 -1.0214 7.8743 -16.9977 8.6328 -1.4257 -6.8409 0.4971 0.5081 16.9093 -74.5737 -49.1594 113.9854 19.9350 0.3591 95.1227 7.9661 1.0577 5.2250 -6.3952 0.9958 100.5921 -24.9513 79.0255 11.4885 3.5552 3.1387 -0.6117 -8.8435 -37.1221 15.3966 -60.6045 5.6171 87.8569 4.7735 65.4772 -3.2596 -4.1765 0.8381 -0.8127 -30.5492 47.8250 19.2914 
0.0000 93.1000 0.0000 -55.9558 -4.5165 169.9383 -71.1031 -0.2624 87.7680 134.8541 68.3758 -53.3527 10.5704 26.2311 -9.8909 -163.7362 23.0958 169.4477 -152.7675 61.9119 175.5626 2.2540 -0.3694 -29.5164 -72.0013 38.5886 -100.6093 3.8117 3.5793 -24.1492 10.1290 -1.6075 -6.6084 -0.1571 0.6291 20.8559 -65.4023 -51.4550 111.5885 19.7885 -4.8030 78.3506 6.7071 0.9210 3.6463 -19.4337 -3.5567 100.2876 -13.4622 73.4593 -3.0212 3.7781 1.5912 -0.5509 -9.7026 -42.5295 13.0069 -51.7903 5.4187 89.3790 107.9336 85.6992 -108.5263 -5.2748 -0.3271 -0.5858 -14.1583 41.3782 -2.4283 
0.0000 93.1000 0.0000 -58.1391 -7.3178 164.7208 -70.9688 0.4661 87.7569 132.5699 66.7077 -57.3734 8.2900 24.8127 -8.1430 -165.3275 22.9426 171.8749 -157.0096 61.7659 -181.7719 2.8915 1.2168 -31.1036 -79.2018 30.6821 -111.8052 4.1934 4.4446 -27.3954 12.5761 -1.4714 -5.9699 0.5877 0.8066 24.7249 -63.3373 -55.3984 104.2588 18.8181 -12.9113 55.1388 8.2659 0.6201 2.4264 -28.9959 -10.7748 100.6400 -9.7320 68.2979 -5.1540 5.0914 2.1741 -1.0914 -11.0617 -47.1390 11.0008 -38.3484 1.6683 91.1243 168.0056 66.5080 -166.5433 -6.7759 -4.3533 0.1079 1.2194 30.0723 -19.1312 
0.0000 93.1000 0.0000 -55.8630 -13.3837 166.3598 -70.9435 -0.7340 87.7326 127.5921 65.3710 -53.7302 2.4877 23.1849 -4.4939 -165.4457 23.1670 171.6649 -159.0442 62.7914 -179.8422 2.3757 1.0467 -29.3588 -90.9991 31.4503 -120.5789 8.4902 7.8553 -38.0476 13.1933 -1.7272 -5.9316 -0.3847 0.1248 26.5088 -73.6777 -60.7830 81.8312 20.7281 -19.8645 45.1088 9.6091 -0.4420 0.1653 -34.3437 -16.9581 93.8231 -7.3265 64.4119 -7.7666 4.9470 -0.0740 -0.6861 -11.1595 -47.3769 10.4586 -17.3261 -0.9456 91.9600 170.7715 52.8082 -172.0312 -7.8752 -6.2744 0.7049 6.6657 7.8060 -24.0341 
0.0000 93.1000 0.0000 -55.1534 -13.6890 169.2945 -71.1519 -0.0008 88.1374 123.5524 65.1711 -49.2665 -1.8904 21.9869 -2.0065 -164.4354 22.1488 171.3498 -158.8188 61.7242 -179.2911 2.4072 0.7388 -26.1565 -96.2293 37.5477 -127.4568 14.3977 9.1959 -53.2326 14.9946 -1.5277 -5.9204 0.0097 0.6166 24.6377 -73.9764 -64.8705 66.5365 20.7062 -19.9867 45.7582 8.9057 0.2749 1.1372 -45.7478 -13.1650 89.7931 -5.4939 56.3598 -13.4761 5.8445 -2.0666 -0.9063 -11.0560 -47.0077 11.7837 -2.1662 1.6868 93.0526 171.2587 53.9987 -172.3261 -9.3127 -6.4191 0.8666 9.7218 -12.2492 -20.3680 
0.0000 93.1000 0.0000 -54.0139 -12.5191 175.4554 -71.1044 0.0627 88.1022 118.7961 65.2489 -41.2698 -3.5590 20.2923 0.8975 -163.6987 19.7723 172.6444 -155.8851 58.7694 176.7089 2.2478 0.5237 -23.0151 -97.3071 39.5202 -127.4730 21.7824 7.0192 -69.9847 16.1552 -1.2024 -6.2247 -0.7844 2.9272 21.8938 -73.8604 -68.5082 55.2737 15.3165 -14.1668 45.1267 9.0134 0.3113 1.7539 -58.8310 -8.8759 82.9829 -3.4096 44.4422 -14.4841 2.9094 -3.7692 -0.5935 -7.7528 -35.5798 12.9683 7.1348 2.0731 91.5722 167.5955 67.2639 -166.5018 -8.7572 -7.0616 1.1338 10.2290 -22.0824 -17.8684 
0.0000 93.1000 0.0000 -55.3865 -8.4245 -180.4708 -71.4313 0.0754 87.8906 120.6764 64.6648 -38.5470 -2.6608 19.8369 4.5448 -164.6084 18.9814 171.3868 -153.8469 56.8320 172.6254 2.2399 1.9498 -22.2093 -90.9608 39.2984 -125.4153 24.4207 4.0345 -80.5876 15.9810 -1.4836 -7.4971 -1.0980 4.6768 20.5808 -79.6233 -67.0110 47.5552 5.4386 -4.5230 42.0245 8.3612 0.0734 2.5431 -69.1271 -1.1817 84.5316 0.7445 37.2229 -15.8630 -2.5399 2.7069 0.4696 -3.6690 -2.9006 7.3149 5.8440 2.8288 87.9808 99.2971 85.8511 -96.1352 -7.6939 -8.2117 1.0878 10.9968 -26.0221 -16.6705 
0.0000 93.1000 0.0000 -56.0839 -4.9247 -179.1025 -71.3147 0.0226 87.9802 122.9059 65.0877 -39.2650 0.2739 19.3615 6.0780 -166.6427 17.7603 173.2342 -154.3297 54.7163 169.7729 2.0482 1.3984 -23.2382 -83.6640 38.8462 -123.6573 23.1940 3.8446 -79.1399 14.3315 -1.2184 -6.6501 -1.1701 3.9140 23.5168 -81.7866 -60.8902 50.3171 -1.3764 2.5453 41.0385 6.7789 0.5314 2.2470 -69.6242 -3.0736 78.9564 -3.5469 49.9113 -7.7369 -1.4146 6.8431 0.0048 -5.1406 -7.7152 14.5125 1.8523 2.6318 85.7257 9.2993 73.0072 -4.2099 -8.1214 -5.3362 0.7240 11.1543 -29.4201 -15.7215 
